<svg width="40" height="46" viewBox="0 0 40 46" fill="8a004f" xmlns="http://www.w3.org/2000/svg">
<path d="M22.8571 0H28.5143C28.9257 2.05562 30.0571 4.64887 32.0429 7.222C33.9857 9.74337 36.5629 11.5 40 11.5V17.25C34.9914 17.25 31.2286 14.9097 28.5714 11.9916V31.625C28.5714 34.4681 27.7336 37.2474 26.1639 39.6113C24.5941 41.9753 22.363 43.8178 19.7526 44.9058C17.1423 45.9938 14.2699 46.2785 11.4987 45.7238C8.72756 45.1691 6.18209 43.8 4.18419 41.7897C2.1863 39.7793 0.82572 37.2179 0.274502 34.4294C-0.276715 31.6409 0.00618977 28.7506 1.08744 26.1239C2.16869 23.4972 3.99973 21.2522 6.349 19.6726C8.69828 18.0931 11.4603 17.25 14.2857 17.25V23C12.5905 23 10.9333 23.5058 9.52369 24.4536C8.11412 25.4013 7.0155 26.7483 6.36675 28.3244C5.718 29.9004 5.54826 31.6346 5.87899 33.3077C6.20972 34.9807 7.02607 36.5176 8.2248 37.7238C9.42354 38.93 10.9508 39.7515 12.6135 40.0843C14.2762 40.4171 15.9996 40.2463 17.5659 39.5935C19.1321 38.9407 20.4708 37.8352 21.4126 36.4168C22.3544 34.9984 22.8571 33.3309 22.8571 31.625V0Z" fill="#8a004f"/>
</svg>
