<svg width="47" height="39" viewBox="0 0 47 39" fill="8a004f" xmlns="http://www.w3.org/2000/svg">
<path d="M14.7639 39C32.5005 39 42.2031 23.9918 42.2031 10.9995C42.207 10.5775 42.2011 10.1555 42.1854 9.73356C44.0738 8.33637 45.704 6.60758 47 4.62783C45.2349 5.42061 43.3653 5.94417 41.4511 6.18175C43.4679 4.95094 44.9784 3.01396 45.7016 0.73104C43.8077 1.87914 41.7336 2.68397 39.5711 3.10991C38.1175 1.52907 36.1941 0.481807 34.0987 0.130345C32.0034 -0.221117 29.853 0.142836 27.9807 1.16583C26.1084 2.18882 24.6186 3.81376 23.7422 5.78895C22.8658 7.76414 22.6516 9.97934 23.1328 12.0914C19.2984 11.896 15.5471 10.8792 12.1226 9.10709C8.69797 7.33494 5.67664 4.84706 3.25475 1.80498C2.02564 3.97429 1.65073 6.53988 2.20608 8.98115C2.76144 11.4224 4.20546 13.5565 6.24512 14.9503C4.71589 14.8998 3.22007 14.4804 1.88 13.7263V13.8613C1.88374 16.1334 2.65497 18.3345 4.06351 20.0932C5.47205 21.8519 7.43164 23.0604 9.6115 23.5148C8.78392 23.7478 7.92899 23.8638 7.07056 23.8598C6.4652 23.8662 5.8608 23.8089 5.26694 23.6888C5.88203 25.6456 7.08166 27.3566 8.69746 28.5816C10.3133 29.8067 12.2641 30.4843 14.2763 30.5195C10.8573 33.2582 6.63653 34.7446 2.29125 34.7402C1.52544 34.7461 0.760067 34.701 0 34.6052C4.41043 37.4775 9.53297 39.0023 14.7639 39Z"  fill="#8a004f"/>
</svg>
