<svg width="52" height="37" viewBox="0 0 52 37" fill="#8a004f" xmlns="http://www.w3.org/2000/svg">
<path  d="M26.1657 0H26.455C29.1265 0.00975 42.6627 0.107251 46.3125 1.08875C47.4158 1.3883 48.4213 1.97217 49.2283 2.78203C50.0353 3.59188 50.6156 4.59935 50.9112 5.70375C51.2395 6.93875 51.4702 8.5735 51.6262 10.2602L51.6587 10.5982L51.7302 11.4432L51.7562 11.7812C51.9675 14.7517 51.9935 17.5337 51.9967 18.1415V18.3852C51.9935 19.0157 51.9642 21.9862 51.7302 25.0802L51.7042 25.4215L51.675 25.7595C51.5125 27.6185 51.272 29.4645 50.9112 30.823C50.6156 31.9274 50.0353 32.9349 49.2283 33.7447C48.4213 34.5546 47.4158 35.1385 46.3125 35.438C42.5425 36.452 28.2132 36.5235 26.2275 36.5267H25.766C24.7617 36.5267 20.6082 36.5072 16.2532 36.3577L15.7007 36.3382L15.418 36.3252L14.8622 36.3025L14.3065 36.2797C10.699 36.1205 7.26375 35.8638 5.681 35.4347C4.57804 35.1355 3.57289 34.5521 2.76592 33.7428C1.95895 32.9336 1.3784 31.9268 1.08225 30.823C0.7215 29.4677 0.481 27.6185 0.3185 25.7595L0.2925 25.4182L0.2665 25.0802C0.105181 22.8781 0.0162998 20.6712 0 18.4632L0 18.0635C0.0065 17.3647 0.0325 14.95 0.208 12.285L0.23075 11.9502L0.2405 11.7812L0.2665 11.4432L0.338 10.5982L0.3705 10.2602C0.5265 8.5735 0.75725 6.9355 1.0855 5.70375C1.38115 4.59935 1.96148 3.59188 2.76848 2.78203C3.57548 1.97217 4.5809 1.3883 5.68425 1.08875C7.267 0.66625 10.7022 0.40625 14.3097 0.24375L14.8622 0.221L15.4212 0.2015L15.7007 0.19175L16.2565 0.169001C19.3496 0.0695617 22.4439 0.0143057 25.5385 0.00325015L26.1657 0ZM20.8 10.4325V26.091L34.3102 18.265L20.8 10.4325Z"  fill="#8a004f"/>
</svg>
